<svg width="62" height="90" viewBox="0 0 62 90" fill="none" xmlns="http://www.w3.org/2000/svg">
<path d="M61.05 33.72C59.89 32.16 60.33 30.98 60.84 29.62C61.4 28.12 62.09 26.25 59.81 24.33C58.76 23.44 58.88 22.49 59.21 21.02C59.5 19.74 59.89 17.98 57.71 17.26C56.15 16.75 55.86 15.65 55.53 14.38C55.2 13.11 54.78 11.53 52.69 11.36C51.76 11.28 51.41 10.4 50.96 8.94002C50.51 7.49002 49.82 5.30002 47.32 6.04002C46.68 6.23002 45.81 5.28002 44.97 4.36002C43.64 2.90002 41.99 1.09002 39.75 2.17002C38.97 2.55002 37.94 2.02002 36.75 1.41002C35 0.510018 32.82 -0.599982 30.65 1.21002C30.1 1.67002 29.31 1.52002 28.08 1.21002C26.59 0.840018 24.56 0.340018 23.09 2.27002C22.41 3.16002 20.97 3.11002 19.45 3.05002C17.43 2.97002 14.91 2.87002 14.25 5.58002C13.72 7.74002 12.36 8.11002 10.78 8.55002C9.17005 9.00002 7.16005 9.56002 7.38005 12.64C7.50005 14.26 6.32005 15.09 5.07005 15.97C3.86005 16.82 2.21005 17.98 3.41005 19.96C3.79005 20.58 3.36005 21.18 2.36005 22.31C1.41005 23.38 -0.0199536 25.01 1.51005 26.7C1.93005 27.17 1.69005 27.84 1.08005 29.14C0.400046 30.59 -0.519953 32.57 1.12005 34.3C2.53005 35.79 2.20005 37.36 1.92005 38.74C1.67005 39.95 1.33005 41.62 3.20005 42.13C3.93005 42.33 4.04005 43.32 4.14005 44.94C4.25005 46.77 4.41005 49.27 6.98005 49.51C7.74005 49.58 7.96005 50.1 8.30005 51.36C8.68005 52.76 9.25005 54.87 12.33 54.15C13.12 53.96 14.01 55.15 14.88 56.29C15.04 56.5 15.19 56.7 15.36 56.91L6.07005 84.09C5.96005 84.4 6.07005 84.74 6.33005 84.93C6.59005 85.13 6.95005 85.13 7.21005 84.94L16.45 78.42L19.76 89.23C19.85 89.54 20.14 89.75 20.46 89.76C20.46 89.76 20.47 89.76 20.48 89.76C20.79 89.76 21.08 89.56 21.18 89.27L30.62 63.56L40.05 89.27C40.16 89.57 40.44 89.76 40.75 89.76C40.75 89.76 40.76 89.76 40.77 89.76C41.09 89.76 41.37 89.54 41.47 89.23L44.78 78.42L54.02 84.94C54.29 85.13 54.64 85.12 54.9 84.93C55.16 84.74 55.27 84.39 55.16 84.09L46.21 57.88C46.31 57.68 46.4 57.45 46.48 57.18C46.8 56 47.52 55.81 48.78 55.59C49.95 55.38 51.72 55.07 51.71 52.63C51.71 51.39 52.36 51.01 53.52 50.43C54.59 49.9 56.06 49.17 55.92 47.11C55.86 46.28 56.42 45.87 57.41 45.22C58.61 44.43 60.26 43.35 59.32 40.74C58.95 39.7 59.45 39.15 60.36 38.27C61.31 37.36 62.75 35.97 61.06 33.71L61.05 33.72ZM20.52 86.66L17.56 76.99C17.49 76.76 17.31 76.58 17.09 76.5C16.86 76.42 16.61 76.46 16.41 76.6L8.22005 82.39L16.49 58.18C17.22 58.82 18.04 59.2 19.01 58.86C20.63 58.3 21.52 59.14 22.46 60.04C23.29 60.82 24.42 61.89 25.9 60.96C26.56 60.54 27.19 60.76 28.24 61.17C28.69 61.35 29.19 61.53 29.72 61.65L20.53 86.67L20.52 86.66ZM44.79 76.59C44.59 76.45 44.34 76.41 44.11 76.49C43.88 76.57 43.71 76.75 43.64 76.98L40.68 86.65L31.51 61.66C31.91 61.57 32.33 61.41 32.77 61.14C33.4 60.76 34.33 60.99 35.31 61.25C36.68 61.6 38.56 62.08 39.49 60.16C40.07 58.97 41.02 59 42.53 59.14C43.3 59.21 44.22 59.29 45 58.99L52.99 82.38L44.8 76.59H44.79ZM59.31 37.2C58.41 38.07 57.17 39.26 57.89 41.26C58.41 42.69 57.82 43.15 56.57 43.97C55.55 44.64 54.29 45.47 54.41 47.21C54.48 48.23 53.95 48.54 52.84 49.09C51.72 49.65 50.18 50.41 50.19 52.64C50.19 53.76 49.79 53.88 48.5 54.11C47.27 54.33 45.6 54.63 45.01 56.79C44.76 57.72 44.31 57.8 42.66 57.65C41.2 57.51 39.19 57.33 38.13 59.51C37.79 60.22 37.27 60.21 35.68 59.8C34.49 59.5 33.15 59.15 31.98 59.87C30.83 60.57 29.88 60.2 28.78 59.76C28.11 59.5 27.39 59.21 26.64 59.21C26.14 59.21 25.62 59.33 25.09 59.67C24.67 59.94 24.43 59.83 23.49 58.93C22.5 57.99 21 56.57 18.52 57.42C17.85 57.65 17.08 56.72 16.06 55.37C14.96 53.91 13.71 52.27 11.98 52.67C10.31 53.06 10.13 52.4 9.74005 50.95C9.42005 49.78 8.99005 48.17 7.11005 48C5.94005 47.89 5.76005 46.95 5.63005 44.84C5.52005 43.12 5.40005 41.17 3.59005 40.68C3.18005 40.57 3.08005 40.54 3.38005 39.05C3.69005 37.57 4.15005 35.33 2.20005 33.27C1.32005 32.34 1.70005 31.33 2.43005 29.78C3.05005 28.46 3.75005 26.96 2.62005 25.7C2.07005 25.09 2.33005 24.62 3.48005 23.31C4.41005 22.26 5.68005 20.82 4.69005 19.19C4.28005 18.52 4.46005 18.25 5.93005 17.21C7.25005 16.29 9.05005 15.02 8.87005 12.55C8.74005 10.69 9.55005 10.47 11.18 10.01C12.78 9.57002 14.97 8.96002 15.71 5.95002C16.05 4.58002 17.09 4.48002 19.4 4.57002C21.15 4.64002 23.14 4.72002 24.29 3.20002C25.12 2.11002 26.14 2.29002 27.73 2.68002C29.01 2.99002 30.45 3.35002 31.62 2.37002C32.93 1.27002 34.18 1.78002 36.07 2.75002C37.49 3.48002 38.95 4.23002 40.41 3.52002C41.56 2.97002 42.48 3.85002 43.87 5.37002C45.02 6.63002 46.2 7.93002 47.75 7.47002C48.68 7.20002 48.94 7.48002 49.54 9.38002C49.98 10.77 50.57 12.68 52.58 12.84C53.53 12.92 53.73 13.37 54.09 14.75C54.44 16.08 54.92 17.91 57.26 18.67C58.04 18.93 58.1 19.17 57.77 20.67C57.46 22.04 57.05 23.92 58.87 25.45C60.35 26.7 60.01 27.59 59.46 29.07C58.91 30.54 58.23 32.38 59.87 34.59C60.77 35.8 60.32 36.23 59.33 37.17L59.31 37.2Z" fill="black"/>
<path d="M31 6.8501C17.68 6.8501 6.83997 17.6901 6.83997 31.0101C6.83997 44.3301 17.68 55.1701 31 55.1701C44.32 55.1701 55.16 44.3301 55.16 31.0101C55.16 17.6901 44.32 6.8501 31 6.8501ZM31 53.6601C18.51 53.6601 8.33997 43.5001 8.33997 31.0001C8.33997 18.5001 18.5 8.3401 31 8.3401C43.5 8.3401 53.66 18.5001 53.66 31.0001C53.66 43.5001 43.5 53.6601 31 53.6601Z" fill="black"/>
<path d="M31.67 12.3901C31.42 11.8801 30.58 11.8801 30.33 12.3901L25.22 22.7501L13.78 24.4101C13.5 24.4501 13.26 24.6501 13.17 24.9201C13.08 25.1901 13.16 25.4901 13.36 25.6901L21.64 33.7601L19.69 45.1501C19.64 45.4301 19.76 45.7201 19.99 45.8801C20.22 46.0501 20.53 46.0701 20.78 45.9401L31.01 40.5601L41.24 45.9401C41.35 46.0001 41.47 46.0301 41.59 46.0301C41.75 46.0301 41.9 45.9801 42.03 45.8901C42.26 45.7201 42.38 45.4401 42.33 45.1601L40.38 33.7701L48.65 25.7001C48.85 25.5001 48.93 25.2001 48.84 24.9301C48.75 24.6601 48.52 24.4601 48.23 24.4201L36.79 22.7601L31.68 12.4001L31.67 12.3901ZM39.03 32.9601C38.85 33.1301 38.77 33.3801 38.81 33.6201L40.57 43.9001L31.34 39.0501C31.12 38.9401 30.86 38.9401 30.64 39.0501L21.41 43.9001L23.17 33.6201C23.21 33.3801 23.13 33.1301 22.95 32.9601L15.48 25.6801L25.8 24.1801C26.04 24.1401 26.26 23.9901 26.36 23.7701L30.98 14.4201L35.6 23.7701C35.71 23.9901 35.92 24.1401 36.16 24.1801L46.48 25.6801L39.01 32.9601H39.03Z" fill="black"/>
</svg>
